<?xml version="1.0" encoding="UTF-8" standalone="no"?>
<!DOCTYPE svg PUBLIC "-//W3C//DTD SVG 1.1//EN"
"http://www.w3.org/Graphics/SVG/1.1/DTD/svg11.dtd">
<svg viewBox="0 0 935 1210" version="1.1" xmlns="http://www.w3.org/2000/svg" xmlns:xlink="http://www.w3.org/1999/xlink">
<defs>
<style type="text/css"><![CDATA[
.g1_4{
fill: #FFFFFF;
}
.g2_4{
}
]]></style>
</defs>
<path d="M41.4,1.7l852,0l0,781.3l-852,0Z" class="g1_4" />
<path fill-rule="evenodd" d="M41.4,782.8l13,0l0,18.2l-13,0Zm45.9,0l806.1,0l0,18.2L87.3,801Z" class="g1_4" />
<path d="M41.4,800.8l852,0l0,247.7l-852,0Z" class="g1_4" />
<path fill-rule="evenodd" d="M41.4,1048.3l443.5,0l0,18.1l-443.5,0Zm507.9,0l344.1,0l0,18.1l-344.1,0Z" class="g1_4" />
<path d="M41.4,1066.3l852,0l0,134.7l-852,0Z" class="g1_4" />
<path d="M623,1098.5l30.2,0l0,1l-30.2,0Z" class="g2_4" />
<path d="M619.7,1125.7l41.4,0l0,0.9l-41.4,0Z" class="g2_4" />
<path fill-rule="evenodd" d="M107.8,800.3l323.6,0l0,1l-323.6,0Zm0,176.1l323.6,0l0,1.1l-323.6,0Zm440.9,106.9l1.1,0l0,19.1l-1.1,0Zm18.9,1.1l1.1,0l0,18l-1.1,0Zm-18.9,26.1l1.1,0l0,19l-1.1,0Zm18.9,1.1l1.1,0l0,17.9l-1.1,0Zm0.6,-311.3l325.2,0l0,1l-325.2,0Zm0,90.5l325.2,0l0,1.1l-325.2,0Zm0,85.6l325.2,0l0,1.1l-325.2,0Z" class="g2_4" />
<path fill-rule="evenodd" d="M549.8,1083.3l18.9,0l0,1.1l-18.9,0Zm0,18l18.9,0l0,1.1l-18.9,0Zm0,9.2l18.9,0l0,1.1l-18.9,0Zm0,17.9l18.9,0l0,1.1l-18.9,0Z" class="g2_4" />
</svg>